<svg xmlns="http://www.w3.org/2000/svg" xmlns:xlink="http://www.w3.org/1999/xlink" width="410.157" height="786.44" viewBox="0 0 410.157 786.44"><defs><linearGradient id="linear-gradient" x1="0.5" x2="1.301" y2="2.69" gradientUnits="objectBoundingBox"><stop offset="0" stop-color="#a43dac"></stop><stop offset="1" stop-color="#e807f6"></stop></linearGradient></defs><g id="ALL_Facuilty" data-name="ALL Facuilty" transform="translate(-1125 -132)"><ellipse id="Ellipse_41" data-name="Ellipse 41" cx="94.617" cy="20.024" rx="94.617" ry="20.024" transform="translate(1345.923 878.393)" fill="#e6e6e6"></ellipse><path id="Path_212" data-name="Path 212" d="M775.384,283.1s10.338,38.566,19.122,41.129-46.859,10.566-46.859,10.566l-1.228-34.562Z" transform="translate(645.058 109.22)" fill="#a0616a"></path><path id="Path_213" data-name="Path 213" d="M573,432.889l10.29,22.051,11.761-11.761L587.7,425.538Z" transform="translate(802 200)" fill="#a0616a"></path><path id="Path_214" data-name="Path 214" d="M700.9,419.658l-2.941,20.581-8.82-5.88V412.308Z" transform="translate(802 200)" fill="#a0616a"></path><path id="Path_215" data-name="Path 215" d="M574.468,641.64l-4.41,35.282,23.521,1.47-2.94-36.752Z" transform="translate(802 200)" fill="#a0616a"></path><path id="Path_216" data-name="Path 216" d="M703.835,641.64l4.41,35.282-23.521,1.47,2.94-36.752Z" transform="translate(802 200)" fill="#a0616a"></path><path id="Path_217" data-name="Path 217" d="M741.7,511.908s-10.291,27.931-8.82,39.692-11.761,72.034-7.35,77.914,4.41,13.231,1.47,17.641-4.41-1.47-2.94,5.88-1.47,44.1,0,49.983-4.41,7.35-1.47,13.231,7.35,23.521,7.35,23.521l19.111-1.47,2.94-16.171s8.82-1.47,7.35-10.291,7.35-67.624,7.35-67.624l24.991-82.325,35.282,74.974s1.47,52.923,5.88,58.8-4.41,22.051,0,27.932,8.82,16.171,8.82,16.171h22.051V728.01s13.231-7.35,0-29.4l-2.94-126.427-8.82-60.273Z" transform="translate(645.058 109.22)" fill="#2f2e41"></path><path id="Path_218" data-name="Path 218" d="M753.462,763.292s-10.291-4.41-14.7-1.47-7.35-1.47-7.35-1.47-5.881-2.94-7.351,1.47a43.429,43.429,0,0,1-4.41,8.82s-8.82,16.171-2.94,20.581S727,798.574,727,801.514s27.932,4.41,27.932,0S753.462,763.292,753.462,763.292Z" transform="translate(645.058 109.22)" fill="#2f2e41"></path><path id="Path_219" data-name="Path 219" d="M838.726,763.292s10.291-4.41,14.7-1.47,7.35-1.47,7.35-1.47,5.88-2.94,7.35,1.47a43.422,43.422,0,0,0,4.41,8.821s8.82,16.171,2.94,20.581-10.291,7.35-10.291,10.291-27.932,4.41-27.932,0S838.726,763.292,838.726,763.292Z" transform="translate(645.058 109.22)" fill="#2f2e41"></path><path id="Path_220" data-name="Path 220" d="M829.171,331.824s-41.162-16.171-63.213-10.291-58.8,32.342-57.333,38.222,15.436,74.239,15.436,74.239,0,41.162,7.35,54.393,8.82,23.521,8.82,23.521l-1.47,14.7s38.222,2.94,58.8-5.88,54.393-2.94,54.393-2.94-17.641-73.5-26.461-85.265S829.171,331.824,829.171,331.824Z" transform="translate(645.058 109.22)" fill="#575a89"></path><path id="Path_221" data-name="Path 221" d="M721.12,356.08l-13.231,4.41s-11.761,17.641-11.761,29.4-1.47,85.265,4.41,95.555,11.761,30.872,20.581,32.342l10.291,13.231,17.641-11.761-5.881-13.231Z" transform="translate(645.058 109.22)" fill="#575a89"></path><path id="Path_222" data-name="Path 222" d="M809.325,334.029l14.623-4.107,5.958,2.637s22.051,22.051,29.4,44.1,8.82,107.316,8.82,107.316,1.47,4.41,0,5.88-2.94,2.94-2.94,5.88-2.94,8.82-2.94,8.82l-1.47,11.761-14.7-1.47s-27.932-82.325-27.932-101.436S809.325,334.029,809.325,334.029Z" transform="translate(645.058 109.22)" fill="#575a89"></path><path id="Path_223" data-name="Path 223" d="M805.224,324.322s.426-7.2-3.985-8.669-10.291-8.82-22.051-5.88-42.632,7.35-44.1,10.291-5.88,4.41-4.41,7.35,4.41,0,1.47,2.94-4.41,1.47-2.94,2.94,1.47,8.82,1.47,8.82,22.051,14.7,27.932,13.231,40.975-32.338,40.975-32.338Z" transform="translate(645.058 109.22)" fill="#575a89"></path><path id="Path_224" data-name="Path 224" d="M573.653,329.735l-1.49,50.076,11.761,35.281Z" transform="translate(802 200)" opacity="0.2"></path><path id="Path_225" data-name="Path 225" d="M675.112,307.857l13.3,48.3L685.34,393.22Z" transform="translate(802 200)" opacity="0.2"></path><circle id="Ellipse_51" data-name="Ellipse 51" cx="31.204" cy="31.204" r="31.204" transform="translate(1373.571 358.357)" fill="#a0616a"></circle><path id="Path_226" data-name="Path 226" d="M733.164,278.189l6.606,16.877c2.707,6.916,5.807,14.315,12.152,18.174,7.834,4.765,18.3,2.442,25.874-2.72,13.527-9.214,20.405-27.2,16.476-43.092s-18.4-28.6-34.662-30.446l-.314,5.649-6.931-5.81c-1.844,3.713-7.674,4.538-10.475,1.481,1.821,3.774-.281,8.377-3.315,11.269-3.728,3.552-14.392,7.82-13.949,14.17C724.92,267.977,731.445,273.8,733.164,278.189Z" transform="translate(645.058 109.22)" fill="#2f2e41"></path><g id="Group_37" data-name="Group 37" transform="translate(-5965 -2068)"><g id="Group_16" data-name="Group 16" transform="translate(7090 2200)"><g id="Polygon_1" data-name="Polygon 1" transform="translate(1 103)" fill="url(#linear-gradient)"><path d="M 99.06620788574219 101 L 35.93379211425781 101 L 4.755221843719482 52.5 L 35.93379211425781 4 L 99.06620788574219 4 L 130.2447814941406 52.5 L 99.06620788574219 101 Z" stroke="none"></path><path d="M 38.11759948730469 8 L 9.510459899902344 52.5 L 38.11759948730469 97 L 96.88240051269531 97 L 125.4895401000977 52.5 L 96.88240051269531 8 L 38.11759948730469 8 M 33.75 0 L 101.25 0 L 135 52.5 L 101.25 105 L 33.75 105 L 0 52.5 L 33.75 0 Z" stroke="none" fill="#fff"></path></g><g id="Polygon_6" data-name="Polygon 6" transform="translate(1 206)" fill="url(#linear-gradient)"><path d="M 99.05499267578125 102 L 35.94500350952148 102 L 4.742175102233887 53 L 35.94500350952148 4 L 99.05499267578125 4 L 130.2578277587891 53 L 99.05499267578125 102 Z" stroke="none"></path><path d="M 38.13997650146484 8 L 9.484321594238281 53 L 38.13997650146484 98 L 96.86001586914063 98 L 125.5156784057617 53 L 96.86001586914063 8 L 38.13997650146484 8 M 33.75 0 L 101.25 0 L 135 53 L 101.25 106 L 33.75 106 L 0 53 L 33.75 0 Z" stroke="none" fill="#fff"></path></g><g id="Polygon_5" data-name="Polygon 5" transform="translate(200 103)" fill="url(#linear-gradient)"><path d="M 99.05499267578125 102 L 35.94500350952148 102 L 4.742175102233887 53 L 35.94500350952148 4 L 99.05499267578125 4 L 130.2578277587891 53 L 99.05499267578125 102 Z" stroke="none"></path><path d="M 38.13997650146484 8 L 9.484321594238281 53 L 38.13997650146484 98 L 96.86001586914063 98 L 125.5156784057617 53 L 96.86001586914063 8 L 38.13997650146484 8 M 33.75 0 L 101.25 0 L 135 53 L 101.25 106 L 33.75 106 L 0 53 L 33.75 0 Z" stroke="none" fill="#fff"></path></g><g id="Polygon_4" data-name="Polygon 4" fill="url(#linear-gradient)"><path d="M 99.06620788574219 101 L 35.93379211425781 101 L 4.755221843719482 52.5 L 35.93379211425781 4 L 99.06620788574219 4 L 130.2447814941406 52.5 L 99.06620788574219 101 Z" stroke="none"></path><path d="M 38.11759948730469 8 L 9.510459899902344 52.5 L 38.11759948730469 97 L 96.88240051269531 97 L 125.4895401000977 52.5 L 96.88240051269531 8 L 38.11759948730469 8 M 33.75 0 L 101.25 0 L 135 52.5 L 101.25 105 L 33.75 105 L 0 52.5 L 33.75 0 Z" stroke="none" fill="#fff"></path></g><g id="Polygon_3" data-name="Polygon 3" transform="translate(100 51)" fill="url(#linear-gradient)"><path d="M 99.05499267578125 102 L 35.94500350952148 102 L 4.742175102233887 53 L 35.94500350952148 4 L 99.05499267578125 4 L 130.2578277587891 53 L 99.05499267578125 102 Z" stroke="none"></path><path d="M 38.13997650146484 8 L 9.484321594238281 53 L 38.13997650146484 98 L 96.86001586914063 98 L 125.5156784057617 53 L 96.86001586914063 8 L 38.13997650146484 8 M 33.75 0 L 101.25 0 L 135 53 L 101.25 106 L 33.75 106 L 0 53 L 33.75 0 Z" stroke="none" fill="#fff"></path></g><g id="Polygon_2" data-name="Polygon 2" transform="translate(101 155)" fill="url(#linear-gradient)"><path d="M 98.30741882324219 101 L 35.69258117675781 101 L 4.744964122772217 52.5 L 35.69258117675781 4 L 98.30741882324219 4 L 129.2550354003906 52.5 L 98.30741882324219 101 Z" stroke="none"></path><path d="M 37.88516998291016 8 L 9.48992919921875 52.5 L 37.88516998291016 97 L 96.11483001708984 97 L 124.5100708007813 52.5 L 96.11483001708984 8 L 37.88516998291016 8 M 33.5 0 L 100.5 0 L 134 52.5 L 100.5 105 L 33.5 105 L 0 52.5 L 33.5 0 Z" stroke="none" fill="#fff"></path></g></g><g id="Group_17" data-name="Group 17" transform="translate(7116.774 2247.502)"><text id="BSc.CSIT" transform="translate(0.227 16.498)" fill="#fff" stroke="#fff" stroke-width="1" font-size="17" font-family="OpenSans, Open Sans"><tspan x="0" y="0">BSc.CSIT</tspan></text><text id="BIM" transform="translate(28.227 114.498)" fill="#fff" stroke="#fff" stroke-width="1" font-size="17" font-family="OpenSans, Open Sans"><tspan x="0" y="0">BIM</tspan></text><text id="BSW" transform="translate(122.227 62.498)" fill="#fff" stroke="#fff" stroke-width="1" font-size="17" font-family="OpenSans, Open Sans"><tspan x="0" y="0">BSW</tspan></text><text id="BBM" transform="translate(124.227 161.498)" fill="#fff" stroke="#fff" stroke-width="1" font-size="17" font-family="OpenSans, Open Sans"><tspan x="0" y="0">BBM</tspan></text><text id="BBS" transform="translate(226.227 117.498)" fill="#fff" stroke="#fff" stroke-width="1" font-size="17" font-family="OpenSans, Open Sans"><tspan x="0" y="0">BBS</tspan></text><text id="BCA" transform="translate(28.227 216.498)" fill="#fff" stroke="#fff" stroke-width="1" font-size="17" font-family="OpenSans, Open Sans"><tspan x="0" y="0">BCA</tspan></text></g></g></g></svg>