<svg xmlns="http://www.w3.org/2000/svg" xmlns:xlink="http://www.w3.org/1999/xlink" xmlns:v="https://vecta.io/nano" width="613.714" height="451.633"><style><![CDATA[.B{opacity:.1}.C{fill:#6c63ff}.D{fill:#d0d2d5}.E{fill:#444053}.F{fill:#cf0acf}]]></style><defs><linearGradient id="A" x1=".5" y1="1" x2=".5"><stop offset="0" stop-color="gray" stop-opacity=".25"></stop><stop offset=".54" stop-color="gray" stop-opacity=".122"></stop><stop offset="1" stop-color="gray" stop-opacity=".102"></stop></linearGradient><path id="B" d="M170.57 161.298h5.377v15.305h-5.377z"></path><path id="C" d="M170.57 164.193h5.377v1.657h-5.377z"></path><path id="D" d="M242.62 211.802s2 10.862-2.477 14.41 3.8 24.8 17.478 22.322 19.248-20.313 19.248-20.313-13.7-2.835-8.62-17.244z"></path><path id="E" d="M144.6 433.042a19.46 19.46 0 0 0-.978 2.27c-.625 2.183-.943 4.442-.945 6.713a3.26 3.26 0 0 0 .12 1.3 2.83 2.83 0 0 0 2.058 1.45c3.525.95 7.24.06 10.862-.266s7.2-.087 10.7-.874c.517-.1 1.016-.274 1.483-.516.886-.577 1.547-1.44 1.874-2.444a3.2 3.2 0 0 0 .212-.8c-.028-1.232-.864-2.297-2.053-2.618a15.48 15.48 0 0 0-3.552-.451 11.19 11.19 0 0 1-9.906-9.347c-.043-.26-5.887-.1-6.517.234a5.45 5.45 0 0 0-1.559 2.048q-.962 1.606-1.8 3.3z"></path></defs><path d="M356.58 67.72c-39.344-1.363-76.82-14.072-112.6-27.965S172.75 10.464 134.35 3.1c-24.7-4.736-52.95-5.393-72.85 7.837-19.155 12.74-25.34 34.76-28.665 55.153-2.5 15.36-3.976 31.5 2.88 45.9 4.763 9.977 13.22 18.368 19.07 27.927 20.34 33.27 5.974 74.293-16.087 106.772-10.32 15.24-22.338 29.774-30.317 46s-11.672 34.8-4.693 51.346c6.925 16.4 23.414 28.72 41.277 37.383 36.286 17.6 79.046 22.637 120.74 25.49 92.3 6.29 185.095 3.574 277.637.858 34.25-1.016 68.645-2.042 102.34-7.338 18.705-2.938 38.018-7.6 51.6-18.873 17.244-14.306 21.518-38.53 9.96-56.484-19.38-30.083-72.968-37.557-86.513-69.845-7.457-17.77.2-37.568 11.036-54.05 23.245-35.362 62.21-66.38 64.262-106.8 1.412-27.76-17.32-55.56-46.28-68.694-30.36-13.768-72.452-12.036-94.85 10.754-23.055 23.465-63.583 32.492-98.32 31.286z" class="B C"></path><path d="M360.728 410.536l-105.908-1.358 5.432-47.523h93.008l7.364 48.2z" class="D"></path><path d="M360.625 409.857h-52.85l-52.954-.68.3-2.716h104.974z" class="B"></path><path d="M237.168 407.14H377.7v3.394H237.168z" class="D"></path><path d="M511.78 92.528a8.84 8.84 0 0 0-8.793-8.88H110.526c-2.345.01-4.6.95-6.24 2.617s-2.57 3.92-2.56 6.263v237.886H511.78z" class="E"></path><path d="M101.725 328.052v27.86a8.8 8.8 0 0 0 8.8 8.8h392.462a8.8 8.8 0 0 0 8.793-8.8v-27.86z" class="D"></path><path d="M118.698 98.584h378.146v213.853H118.698z" class="B C"></path><path d="M308.8 354.138c2.814.001 5.473-1.29 7.213-3.5h0a9.34 9.34 0 0 0 .711-1.048l-5.03-.826 5.43.043a9.15 9.15 0 0 0 .174-7.267l-7.294 3.8 6.73-4.942a9.16 9.16 0 0 0-16.241.805 9.16 9.16 0 0 0 1.104 9.449h0c1.74 2.204 4.394 3.49 7.202 3.486z" fill="#e463ff"></path><path d="M317.957 364.712l42.25 42.428-6.48-42.428z" class="B"></path><g fill="#fff"><rect width="248.205" height="148.815" rx="2.6" x="129.805" y="137.167"></rect><path d="M118.942 98.606h378.01v12.492h-378.01z"></path></g><g class="C"><rect width="10.862" height="7.604" rx=".78" x="120.572" y="100.778"></rect><rect width="114.055" height="7.604" rx=".58" opacity=".3" x="249.834" y="100.778"></rect></g><path d="M360.505 105.362h-.277l-.1-.087a2.31 2.31 0 0 0 .543-1.477 2.25 2.25 0 0 0-2.262-2.233 2.25 2.25 0 0 0-2.236 2.258 2.25 2.25 0 0 0 2.255 2.24 2.32 2.32 0 0 0 1.477-.543l.1.087v.282l1.738 1.738.543-.543zm-2.086 0c-.74-.005-1.373-.53-1.514-1.258s.25-1.45.935-1.732 1.472-.04 1.882.576.33 1.435-.194 1.96c-.294.294-.693.458-1.11.455z" class="E"></path><circle cx="491.522" cy="104.58" r="3.802" class="C"></circle><g fill="#fff"><rect width="35.303" height="23.897" rx="2.43" x="395.933" y="124.676"></rect><rect width="45.622" height="3.802" rx=".61" x="440.469" y="124.676"></rect><rect width="45.622" height="3.802" rx=".61" x="440.469" y="132.822"></rect><rect width="45.622" height="3.802" rx=".61" x="440.469" y="140.969"></rect><rect width="35.303" height="23.897" rx="2.43" x="395.933" y="162.151"></rect><rect width="45.622" height="3.802" rx=".61" x="440.469" y="162.151"></rect><rect width="45.622" height="3.802" rx=".61" x="440.469" y="170.298"></rect><rect width="45.622" height="3.802" rx=".66" x="440.469" y="178.444"></rect><rect width="35.303" height="23.897" rx="2.43" x="395.933" y="199.626"></rect><rect width="45.622" height="3.802" rx=".66" x="440.469" y="199.626"></rect><rect width="45.622" height="3.802" rx=".66" x="440.469" y="207.773"></rect><rect width="45.622" height="3.802" rx=".66" x="440.469" y="215.92"></rect><rect width="35.303" height="23.897" rx="2.43" x="395.933" y="237.101"></rect><rect width="45.622" height="3.802" rx=".66" x="440.469" y="237.101"></rect><rect width="45.622" height="3.802" rx=".66" x="440.469" y="245.248"></rect><rect width="45.622" height="3.802" rx=".66" x="440.469" y="253.395"></rect><rect width="35.303" height="23.897" rx="2.43" x="395.933" y="274.576"></rect><rect width="45.622" height="3.802" rx=".66" x="440.469" y="274.576"></rect><rect width="45.622" height="3.802" rx=".66" x="440.469" y="282.723"></rect><rect width="45.622" height="3.802" rx=".66" x="440.469" y="290.87"></rect></g><g class="C"><path d="M165.607 176.603h55.85v2.895h-55.85z" class="B"></path><use xlink:href="#B" class="B"></use><use xlink:href="#B" x="7.86" class="B"></use><use xlink:href="#B" x="15.72" class="B"></use><use xlink:href="#B" x="23.578" class="B"></use><use xlink:href="#B" x="31.437" class="B"></use><use xlink:href="#B" x="39.3" class="B"></use><use xlink:href="#C" class="B"></use><use xlink:href="#C" x="7.86" class="B"></use><use xlink:href="#C" x="15.72" class="B"></use><use xlink:href="#C" x="23.578" class="B"></use><use xlink:href="#C" x="31.437" class="B"></use><use xlink:href="#C" x="39.3" class="B"></use><use xlink:href="#C" y="7.447" class="B"></use><use xlink:href="#C" x="7.86" y="7.447" class="B"></use><use xlink:href="#C" x="15.72" y="7.447" class="B"></use><use xlink:href="#C" x="23.578" y="7.447" class="B"></use><use xlink:href="#C" x="31.437" y="7.447" class="B"></use><use xlink:href="#C" x="39.3" y="7.447" class="B"></use><path d="M288.053 184.05h55.85v2.895h-55.85z" class="B"></path><use xlink:href="#B" x="122.447" y="7.446" class="B"></use><use xlink:href="#B" x="130.306" y="7.446" class="B"></use><use xlink:href="#B" x="138.165" y="7.446" class="B"></use><path d="M316.6 168.744h5.377v15.305H316.6z" class="B"></path><use xlink:href="#B" x="153.89" y="7.446" class="B"></use><use xlink:href="#B" x="161.747" y="7.446" class="B"></use><use xlink:href="#C" x="122.447" y="7.447" class="B"></use><use xlink:href="#C" x="130.306" y="7.447" class="B"></use><use xlink:href="#C" x="138.165" y="7.447" class="B"></use><path d="M316.6 171.64h5.377v1.657H316.6z" class="B"></path><use xlink:href="#C" x="153.89" y="7.447" class="B"></use><use xlink:href="#C" x="161.747" y="7.447" class="B"></use><use xlink:href="#C" x="122.447" y="14.892" class="B"></use><use xlink:href="#C" x="130.306" y="14.892" class="B"></use><use xlink:href="#C" x="138.165" y="14.892" class="B"></use><path d="M316.6 179.085h5.377v1.657H316.6z" class="B"></path><use xlink:href="#C" x="153.89" y="14.892" class="B"></use><use xlink:href="#C" x="161.747" y="14.892" class="B"></use><path d="M288.053 205.144h55.85v2.895h-55.85z" class="B"></path><use xlink:href="#B" x="122.447" y="28.542" class="B"></use><use xlink:href="#B" x="130.306" y="28.542" class="B"></use><use xlink:href="#B" x="138.165" y="28.542" class="B"></use><path d="M316.6 189.84h5.377v15.305H316.6z" class="B"></path><use xlink:href="#B" x="153.89" y="28.542" class="B"></use><use xlink:href="#B" x="161.747" y="28.542" class="B"></use><use xlink:href="#C" x="122.447" y="28.541" class="B"></use><use xlink:href="#C" x="130.306" y="28.541" class="B"></use><use xlink:href="#C" x="138.165" y="28.541" class="B"></use><path d="M316.6 192.734h5.377v1.657H316.6z" class="B"></path><use xlink:href="#C" x="153.89" y="28.541" class="B"></use><use xlink:href="#C" x="161.747" y="28.541" class="B"></use><use xlink:href="#C" x="122.447" y="35.987" class="B"></use><use xlink:href="#C" x="130.306" y="35.987" class="B"></use><use xlink:href="#C" x="138.165" y="35.987" class="B"></use><path d="M316.6 200.18h5.377v1.657H316.6z" class="B"></path><use xlink:href="#C" x="153.89" y="35.987" class="B"></use><use xlink:href="#C" x="161.747" y="35.987" class="B"></use><path d="M199.867 209.337c-.417-.534-.798-1.094-1.14-1.678l8.044-1.32-8.7.065a14.7 14.7 0 0 1-.282-11.612l11.65 6.04-10.76-7.908c2.727-4.79 7.9-7.645 13.416-7.392s10.405 3.572 12.68 8.59 1.546 10.89-1.9 15.2c.655.826 1.216 1.722 1.673 2.672l-10.44 5.43 11.128-3.73c1.58 4.687.693 9.856-2.363 13.746 4.74 6.01 4.06 14.653-1.56 19.848s-14.3 5.195-19.91 0-6.3-13.84-1.56-19.848c-4.18-5.318-4.18-12.806 0-18.124z" class="B"></path><path d="M226.034 218.396c0 3.284-1.106 6.472-3.14 9.05 4.74 6.01 4.06 14.653-1.56 19.85s-14.3 5.196-19.9 0-6.298-13.84-1.56-19.85c-1.972-2.484 26.167-10.695 26.167-9.05z" class="B"></path></g><path d="M213.727 255.08l.07.12h-4.975c.027-.038.043-.08.07-.12a4.82 4.82 0 0 1-.641-2.45 5.03 5.03 0 0 1 .3-1.727h0l1.016.136c1.154.116 2.317.116 3.47 0q.5-.05 1.027-.13c-.003.01-.003.018 0 .027a4.89 4.89 0 0 1 .293 1.7 4.82 4.82 0 0 1-.633 2.444z" fill="#3f3d56" opacity=".2"></path><g class="C"><path d="M195.848 255.198h-27.7l-.163-.49c-.976-3.138-.863-6.515.32-9.58-5.566-3.848-7.776-11.004-5.35-17.32a14.03 14.03 0 0 1-1.58-1.265l7.29-3.633-8.288 2.63c-2.693-3.005-4.03-6.988-3.693-11.01l12.932 2.335-12.61-4.383c1.187-5.387 5.296-9.653 10.636-11.04s11.005.34 14.663 4.47 4.688 9.963 2.667 15.095c.875.61 1.68 1.3 2.406 2.09L179 231.36l9.532-6.854c2.9 4.016 3.578 9.226 1.8 13.85 5.406 3.743 7.66 10.627 5.513 16.842z" class="B"></path><path d="M195.848 255.198h-27.7l-.163-.5a14.58 14.58 0 0 1 .32-9.58c-2.607-1.8 21.85-17.96 22.333-16.386a14.6 14.6 0 0 1-.32 9.586c5.425 3.742 7.687 10.643 5.53 16.87zm125.325-19.845a14.61 14.61 0 0 1-7.338 6.17 14.88 14.88 0 0 1 .06 3.15l-11.737-.706 11.465 2.487c-.337 1.563-.928 3.06-1.75 4.432a14.43 14.43 0 0 1-3.91 4.291H291.98v.418h-16.3l.1-.418c1.206-4.558 4.53-8.258 8.934-9.944-.86-6.7 2.983-13.135 9.3-15.555a14.93 14.93 0 0 1-.12-2.026l7.576 2.993-7.495-4.4a14.66 14.66 0 0 1 5.752-10.09l6.9 11.177-5.176-12.307c5.796-3.208 13.024-2.132 17.634 2.626s5.457 12.016 2.066 17.708z" class="B"></path><path d="M311.875 250.907a14.43 14.43 0 0 1-3.91 4.291h-15.983v.418h-16.3l.1-.418c1.206-4.558 4.53-8.258 8.934-9.944-.136-1.086 3.02-.923 7.23-.217 8.253 1.383 20.48 4.936 19.92 5.87z" class="B"></path></g><use xlink:href="#D" fill="#ee8e9e"></use><use xlink:href="#D" class="B"></use><circle cx="254.722" cy="197.095" r="22.675" fill="#ee8e9e"></circle><path d="M291.985 240.203v15.414H217.11v-14.714c.001-3.815 2.285-7.26 5.8-8.744l2.145-.912c5.43-2.314 12.03-5.187 14.186-6.382.236-.118.46-.262.663-.43 1.18-1.18.945.353.945.353s-.033.293-.054.8c-.13 3.47.37 17.108 16.353 15.973 15.593-1.086 16.294-11.634 16.136-14.735-.01-.287-.033-.573-.07-.858 1.076.257 2.128.602 3.147 1.03 3.26 1.206 8.07 3.14 9.358 4.052.4.282.89.576 1.423.874a9.36 9.36 0 0 1 1.684 1.2 9.51 9.51 0 0 1 3.156 7.077z" class="F"></path><path d="M276.366 227c-1.32 6.116-5.464 17.57-20.4 17.87-15.913.315-16.837-15.51-16.733-20 .24-.115.464-.26.668-.43 1.184-1.18.945.353.945.353s-2 18.07 16.294 16.77 16.05-15.587 16.05-15.587a22.3 22.3 0 0 1 3.177 1.023z" class="B"></path><path d="M227.88 198.23c1.54-.385 3.16.207 4.1 1.494a7.41 7.41 0 0 1 1.054 3.889c.983.206 1.537-.907 1.63-1.75.364-3.427.39-6.92 1.542-10.232 1.16-3.626 3.943-6.503 7.528-7.783 1.32-.457 2.73-.59 4.11-.39.82.136 1.59.424 2.406.543 2.824.467 5.893-.87 8.538.06a6.81 6.81 0 0 1 3.492 3.291 7.1 7.1 0 0 0 1.358 1.971c1.124 1 2.884 1.27 4.5 1.586s3.373.864 4.063 2.107c.62 1.124.163 2.422-.043 3.64a8.92 8.92 0 0 0 .918 5.632c.3.543.907 1.2 1.63 1.02a1.43 1.43 0 0 0 .771-.625c1.852-2.6 1.8-5.974 4.128-8.315.777-.782 1.78-1.4 2.536-2.172a4.93 4.93 0 0 0 1.314-4.475c-.418-1.792-1.852-3.26-3.01-4.834-1.503-1.995-2.597-4.267-3.22-6.686a1.21 1.21 0 0 1 0-.874 2.33 2.33 0 0 1 .825-.673 3.12 3.12 0 0 0 1.052-3.981 6.64 6.64 0 0 0-3.731-2.971 24.33 24.33 0 0 0-5.089-1.086 2.77 2.77 0 0 1-2.83-1.4c-.157-.407-.157-.847-.315-1.255a2.88 2.88 0 0 0-2.172-1.521c-.972-.157-1.966-.087-2.906.206-1.086.3-2.32.76-3.26.228-.494-.277-.766-.782-1.3-1-1.086-.456-2.205.467-2.982 1.227-.748.798-1.667 1.416-2.688 1.81a4 4 0 0 1-3.335-.223 10.53 10.53 0 0 1-1.711-1.836 6.44 6.44 0 0 0-4.046-1.629c-1.54-.082-3.082.087-4.568.5a27.58 27.58 0 0 0-8.022 3.367 8.62 8.62 0 0 0-3.079 2.862 6.52 6.52 0 0 0-.69 2.949c-.232 3.37 1.148 6.648 3.72 8.837-1.695.706-2.265 2.44-2.66 3.976a21.76 21.76 0 0 0-1.032 7.446 16.35 16.35 0 0 1 .282 3.872c-.152.606-.236 1.227-.25 1.852.162.706.737 1.244 1.453 1.357z" fill="#454b69"></path><path d="M283.1 186.7a5.3 5.3 0 0 1-.978 1.445c-.755.793-1.76 1.407-2.536 2.172-2.325 2.325-2.276 5.724-4.128 8.32a1.4 1.4 0 0 1-.771.619c-.706.185-1.314-.456-1.63-1.02a9.34 9.34 0 0 1-.809-2.172l-.1.543a8.92 8.92 0 0 0 .918 5.632c.3.543.907 1.2 1.63 1.02a1.43 1.43 0 0 0 .771-.625c1.852-2.6 1.8-5.974 4.128-8.315.777-.782 1.78-1.4 2.536-2.172a4.93 4.93 0 0 0 1.314-4.475 5.83 5.83 0 0 0-.337-.972zm-5.063-16.063a2.27 2.27 0 0 0-.826.673 1.2 1.2 0 0 0 0 .869c.214.844.488 1.672.82 2.477h0a3.12 3.12 0 0 0 1.054-3.981 3.8 3.8 0 0 0-.38-.635c-.193.23-.418.43-.668.597zm-47.903 5.033a10.07 10.07 0 0 1-3.557-6.295 8.48 8.48 0 0 0-.163 1.477 11.31 11.31 0 0 0 1.787 6.718 3.8 3.8 0 0 1 1.933-1.9zm42.02 16.982c.206-1.222.663-2.52.043-3.64-.7-1.25-2.45-1.792-4.062-2.107s-3.373-.58-4.5-1.586a7.1 7.1 0 0 1-1.358-1.972 6.72 6.72 0 0 0-3.492-3.29c-2.645-.93-5.714.4-8.538-.06-.815-.136-1.586-.418-2.406-.543a8.69 8.69 0 0 0-4.111.391 12.24 12.24 0 0 0-7.528 7.783c-1.15 3.308-1.18 6.8-1.542 10.232-.092.836-.646 1.955-1.63 1.75a7.47 7.47 0 0 0-1.054-3.894c-.93-1.285-2.55-1.874-4.1-1.488a1.99 1.99 0 0 1-1.146-.733c.06.498.06 1.002 0 1.5-.152.606-.236 1.227-.25 1.852.142.713.703 1.267 1.418 1.4 1.54-.385 3.16.207 4.1 1.494a7.41 7.41 0 0 1 1.054 3.889c.983.206 1.537-.907 1.63-1.75.364-3.427.4-6.92 1.542-10.232 1.16-3.626 3.943-6.503 7.528-7.783 1.32-.457 2.73-.6 4.1-.4.82.136 1.6.424 2.406.543 2.824.467 5.893-.87 8.538.06a6.81 6.81 0 0 1 3.492 3.291 7.1 7.1 0 0 0 1.358 1.972c1.124 1 2.884 1.27 4.5 1.586s3.26.826 3.98 1.977a.47.47 0 0 1 .016-.251zm-45.43-1.69a10.32 10.32 0 0 0-.179-3.025 13.48 13.48 0 0 0-.1 3.172 5.78 5.78 0 0 0 .1.809l.18-.956z" class="B"></path><g class="E"><path d="M200.133 277.53v-9.8c0-.073.03-.144.08-.196s.122-.08.196-.08h1.113c.073 0 .144.03.196.08s.08.122.08.196v4.08l4.52-4.187a.74.74 0 0 1 1.211.543v8.88a.74.74 0 0 1-1.211.543l-4.52-4.16v4.057c0 .073-.03.144-.08.196s-.122.08-.196.08H200.4c-.137.002-.255-.097-.277-.232zm109.183-9.803v9.8c0 .074-.03.146-.083.198s-.125.08-.2.08h-1.086c-.153 0-.277-.124-.277-.277v-4.08l-4.52 4.182c-.218.18-.52.22-.777.106a.74.74 0 0 1-.44-.65v-8.9a.75.75 0 0 1 .44-.65.74.74 0 0 1 .777.106l4.52 4.16v-4.052c0-.153.124-.277.277-.277h1.086c.15-.003.273.112.282.26zm-56.436 10.228h-2.2c-.6 0-1.086-.486-1.086-1.086v-8.114c0-.6.486-1.086 1.086-1.086h2.2c.288 0 .564.114.768.318s.318.48.318.768v8.114c0 .288-.114.564-.318.768s-.48.318-.768.318zm7.006-1.086v-8.114c0-.288-.114-.564-.318-.768s-.48-.318-.768-.318h-2.232c-.6 0-1.086.486-1.086 1.086v8.114c0 .6.486 1.086 1.086 1.086h2.2a1.12 1.12 0 0 0 .782-.3 1.07 1.07 0 0 0 .326-.776z"></path><path opacity=".6" d="M189.548 254.514h130.35v1.45h-130.35z"></path><circle cx="229.798" cy="255.236" r="3.438"></circle><path d="M189.548 254.514h40.25v1.45h-40.25z"></path></g><ellipse cx="519.807" cy="411.974" rx="32.299" ry="6.213" fill="rgba(8,26,50,0.29)"></ellipse><g fill="#3f3d56"><ellipse cx="519.269" cy="409.335" rx="3.758" ry="4.921"></ellipse><ellipse cx="519.269" cy="403.318" rx="3.758" ry="4.921"></ellipse><ellipse cx="519.269" cy="397.305" rx="3.758" ry="4.921"></ellipse><ellipse cx="519.269" cy="391.288" rx="3.758" ry="4.921"></ellipse><ellipse cx="519.269" cy="385.27" rx="3.758" ry="4.921"></ellipse><ellipse cx="519.269" cy="379.252" rx="3.758" ry="4.921"></ellipse><ellipse cx="519.269" cy="373.234" rx="3.758" ry="4.921"></ellipse></g><path d="M533.343 332.062c.512-.656.98-1.345 1.4-2.064l-9.885-1.63 10.69.08a18.07 18.07 0 0 0 .342-14.273l-14.327 7.44 13.22-9.716c-3.375-5.838-9.728-9.303-16.464-8.98s-12.726 4.384-15.524 10.52-1.935 13.32 2.237 18.62c-.797 1.01-1.485 2.104-2.053 3.26l12.828 6.664-13.676-4.59c-1.95 5.766-.86 12.127 2.9 16.913-5.804 7.384-4.96 17.99 1.94 24.36s17.538 6.372 24.438 0 7.744-16.977 1.94-24.36c5.135-6.535 5.135-15.733 0-22.268z" class="F"></path><ellipse cx="157.504" cy="440.227" rx="53.769" ry="11.405" class="B C"></ellipse><path d="M175.508 438.904c-1.105-.288-2.242-.44-3.384-.456a10.47 10.47 0 0 1-6.224-3.02 11.4 11.4 0 0 1-2.487-3.8l1.086.413c-1.086-2.536.054-5.382 1.054-7.946q2.542-6.517 4.807-13.105c3.8-11.128 7.06-22.7 7-34.542 0-4.28-.788-8.326-.94-12.6-.114-3.172.375-6.338.353-9.515 0-.445 0-.885-.033-1.33 1.97-1.724 3.026-4.264 2.862-6.876-.055-.672-.15-1.34-.288-2-.192-1.146-.446-2.28-.76-3.4-.358-1.178-.847-2.308-1.265-3.46-.81-2.232-1.358-4.557-2.048-6.827a2.35 2.35 0 0 1 .739.2 1.59 1.59 0 0 1-.348-.711 17.6 17.6 0 0 1-.652-4.437l.462-.206a11.55 11.55 0 0 0-.223-4.394c.26-2.33.668-4.676.918-7 .092-.87.054-1.96-.744-2.172-.163-1.244-.228-2.5-.293-3.758q-.342-6.566-.68-13.127l-.543-13.18a38.48 38.48 0 0 0-.755-8.353 10.1 10.1 0 0 0-.386-3.8c-1-3.2-4.15-5.735-7.332-5.556a14.59 14.59 0 0 0-3.471-3.509c.635-1.423 1.4-2.89 2.02-4.04a13.17 13.17 0 0 0 8.82-12.655 13.81 13.81 0 0 0-1.494-6.295c.093-.24.173-.484.24-.733.273-1.173.188-2.4-.244-3.525a10.33 10.33 0 0 0-.543-1.26 12.68 12.68 0 0 0-.451-.8l-.277-.418a7.8 7.8 0 0 0-.543-.739 17.98 17.98 0 0 0-1.238-1.488c-.54-.585-1.137-1.116-1.78-1.586-.873-.65-1.872-1.11-2.933-1.352a8.94 8.94 0 0 0-1.863-.168c-.375 0-.755 0-1.13.033-.76.043-1.515.1-2.27.092-.252.006-.505-.006-.755-.038a27.49 27.49 0 0 1-3.932-.82l-.652-.136a10.17 10.17 0 0 0-.663-.109 12.44 12.44 0 0 0-1.8-.109h-.6c-.603.03-1.204.09-1.8.185l-.6.092c-1.51.237-2.98.674-4.372 1.3a8.09 8.09 0 0 0-.543.272l-.11.06a6.89 6.89 0 0 0-.435.244l-.08.05-.462.293-.038.027c-4.312 2.9-6.86 8.4-7.506 13.85-.722 6.12.543 12.29 1.81 18.314l1.293 6.16a11.95 11.95 0 0 0-3.579 4.964 21.19 21.19 0 0 0-1.027 8.6 18.18 18.18 0 0 0 .092 1.792c-.136 1.13-.255 2.265-.33 3.405-.342 5.268.3 10.564.13 15.843-.13 4.068-.744 8.147-.445 12.188a55.02 55.02 0 0 0 2.172 10.52l1.37 4.932a1.31 1.31 0 0 0 .342.679 1.03 1.03 0 0 0 .766.158 46.23 46.23 0 0 0-2.227 6.235c-.408 1.304-.676 2.647-.8 4.008a24.49 24.49 0 0 0 .972 7.376q1.3 5.43 2.6 10.906.912 3.83 1.82 7.653c1.355 4.994 2.232 10.106 2.618 15.267a33.16 33.16 0 0 1-.543 7.761 67.63 67.63 0 0 0-.673 23.262c.906 6.526 2.377 12.96 4.394 19.232a20 20 0 0 1 1.342-.652l-.2.353q-.94 1.63-1.738 3.34a18.99 18.99 0 0 0-.929 2.286 25.74 25.74 0 0 0-.9 6.773 3.31 3.31 0 0 0 .114 1.309 2.72 2.72 0 0 0 1.955 1.466 17.86 17.86 0 0 0 7.223.114c.01.054.028.107.05.158a2.71 2.71 0 0 0 1.955 1.466c3.356.956 6.9.054 10.357-.272s6.86-.087 10.19-.885a4.85 4.85 0 0 0 1.412-.543 4.62 4.62 0 0 0 1.781-2.471c.104-.26.173-.53.206-.81.003-1.216-.793-2.3-1.957-2.642zm-11.487-50.3c-.187 1.272-.553 2.512-1.086 3.682a70.28 70.28 0 0 0-5.572 17.472 81.01 81.01 0 0 0-1.233 12.084c-.054 2.987.06 6.116-1.184 8.8l.45-.07c-.14.26-.277.543-.407.75l-.065.12c-.752-1.28-1.255-2.692-1.483-4.16 0-.05-.244-.087-.62-.11a112.39 112.39 0 0 1-1.586-26.01 12.04 12.04 0 0 1 .435-3.123c.277-.874.744-1.673 1.086-2.52.542-1.423.907-2.908 1.086-4.42a62.81 62.81 0 0 0 .684-11.688c-.13-3.688.722-7.354 1.45-11.025.348-1.743.668-3.492.842-5.24l.033-.353a52.61 52.61 0 0 1 6.668 17.314 24.77 24.77 0 0 1 .5 8.5zm-23.245-78.492l.174.152c.525.462 1.01.97 1.445 1.515a2 2 0 0 1 .456.836c.163.793-.494 1.466-1.032 2.048a9.24 9.24 0 0 0-.657.793q-.174-2.672-.37-5.344z" fill="url(#A)"></path><path d="M133.26 276.07l-.6 4.61-.51 4.693c-.364 5.225.3 10.47.136 15.707-.14 4.03-.782 8.054-.473 12.08.4 3.547 1.172 7.042 2.3 10.428l1.434 4.888c.05.256.174.5.358.674.276.164.604.216.918.147l6.364-.577c-.407-1.868-.858-3.8-1.086-5.72-.174-1.5-.277-3.01-.386-4.52l-1.086-14.12-.68-8.255c-.187-3.592-.685-7.16-1.488-10.667a21.23 21.23 0 0 0-5.201-9.369z" fill="#ac63ff"></path><use xlink:href="#E" fill="#a26565"></use><use xlink:href="#E" class="B"></use><path d="M154.294 434.77c-.376.732-.703 1.49-.978 2.265-.63 2.182-.947 4.442-.945 6.713a3.17 3.17 0 0 0 .12 1.3 2.83 2.83 0 0 0 2.053 1.456c3.525.945 7.245.054 10.862-.272s7.207-.087 10.7-.874c.52-.105 1.02-.288 1.483-.543a4.6 4.6 0 0 0 1.874-2.444 3.19 3.19 0 0 0 .212-.8 2.78 2.78 0 0 0-2.053-2.618c-1.163-.285-2.355-.436-3.552-.45-5.034-.517-9.095-4.347-9.906-9.342-.043-.26-5.887-.11-6.517.228a5.41 5.41 0 0 0-1.564 2.048c-.62 1.096-1.23 2.204-1.79 3.334z" fill="#a26565"></path><path d="M179.566 377.074c.076 11.737-3.335 23.207-7.338 34.216q-2.38 6.55-5.046 12.986c-1.054 2.542-2.243 5.366-1.113 7.875-3.147-1.357-6.6-1.84-10-1.4 1.3-2.66 1.18-5.757 1.238-8.7a76.2 76.2 0 0 1 1.282-11.976 66.8 66.8 0 0 1 5.86-17.32 13.2 13.2 0 0 0 1.135-3.65 23.31 23.31 0 0 0-.483-8.424 50.22 50.22 0 0 0-7.006-17.163l-.033.348a50.65 50.65 0 0 1-.88 5.2c-.766 3.633-1.662 7.272-1.526 10.928a59.1 59.1 0 0 1-.717 11.585c-.2 1.504-.592 2.975-1.168 4.378-.375.842-.864 1.63-1.157 2.5a11.4 11.4 0 0 0-.456 3.1c-.522 8.865.083 17.76 1.8 26.472a16.81 16.81 0 0 0-8.755 1.993 107.83 107.83 0 0 1-4.616-19.063 63.34 63.34 0 0 1 .706-23.061c.513-2.527.704-5.1.57-7.685a76.72 76.72 0 0 0-2.748-15.137l-1.912-7.6q-1.358-5.43-2.716-10.813a22.99 22.99 0 0 1-1.021-7.31c.132-1.353.417-2.687.847-3.976 1.356-4.386 3.384-8.536 6.012-12.3 10.466.587 21.057-.39 31.5-1.195.506-.1 1.032-.01 1.477.25a2.09 2.09 0 0 1 .6 1.347l3.927 22.268c.636 3.096 1.008 6.24 1.113 9.4 0 3.15-.49 6.29-.37 9.434.167 4.236.97 8.24.993 12.483z" fill="#454b69"></path><path d="M158.074 363.882a50.66 50.66 0 0 1-.88 5.2c-2.276-3.938-4.73-7.777-6.827-11.813-.543-1.037-1.054-2.09-1.57-3.145l-1.548-3.15a43.22 43.22 0 0 1-.836-1.787c-.424-.866-.75-1.777-.972-2.716.76-.14 2.64 1.912 3.2 2.45a43.81 43.81 0 0 1 3.259 3.606 39.54 39.54 0 0 1 3.4 4.454 21.66 21.66 0 0 1 2.774 6.902z" class="B"></path><g fill="#efb7b9"><path d="M166.79 255.85s-5.81 9.26-4.736 11.2-18.3-1.722-18.3-1.722 10.553-9.26 9.472-13.138 13.564 3.66 13.564 3.66z"></path><circle cx="161.626" cy="245.514" r="13.138"></circle></g><path d="M166.986 265.56a13.34 13.34 0 0 0-5.523-4.443 19.76 19.76 0 0 0-3.927-.967l-5.24-.923c-1.264-.35-2.604-.32-3.85.087a6.31 6.31 0 0 0-1.629 1.2c-1.82 1.69-3.585 3.54-5.87 4.52l-1.9.728c-2.55 1.204-4.537 3.344-5.55 5.974-1.14 2.683-1.173 5.6-1.086 8.516-.001 1.008.1 2.013.3 3a19.31 19.31 0 0 0 .994 2.748 50.28 50.28 0 0 1 1.814 5.828q2.037 7.794 3.39 15.75a5.9 5.9 0 0 0 .657 2.172 7.8 7.8 0 0 0 1.814 1.744c.55.45 1.058.953 1.515 1.5.227.223.396.497.494.8.168.782-.543 1.456-1.086 2.026a9.81 9.81 0 0 0-2.455 4.274 1.72 1.72 0 0 0-.391 1.179c.113.298.156.617.125.934-.107.288-.275.55-.494.766a2.9 2.9 0 0 0-.543 2.325c4.07 1.77 8.428 2.788 12.86 3.01 1.086.054 2.172.054 3.26.185.77.1 1.532.255 2.3.348 1.12.105 2.244.134 3.367.087 5.85-.12 11.867-.266 17.24-2.585.505-2.754-.587-5.562-1.27-8.277-1.086-4.345-1.358-8.793-2.172-13.176-.543-2.993-1.358-5.942-1.82-8.956-.547-3.008-.458-6.098.26-9.07.733-2.6.956-5.247 1.716-7.837s1.293-5.4.434-7.962a8.19 8.19 0 0 0-7.729-5.503z" class="F"></path><path d="M173.44 238.546c.64-2.33-.62-4.758-2.118-6.653-1.63-2.037-3.7-3.872-6.25-4.383-2.07-.418-4.215.087-6.322-.08-1.863-.147-3.655-.82-5.507-1.086-1.68-.18-3.378-.117-5.04.2-1.577.235-3.12.665-4.59 1.282-5.594 2.482-8.87 8.6-9.63 14.664s.57 12.182 1.9 18.15l1.2 5.4c1.398 5.585 2.345 11.273 2.83 17 .482 5.76-.427 11.554-2.65 16.89a36.33 36.33 0 0 0 16.69-18.9c.847-2.22 1.477-4.53 2.422-6.713.81-1.88 1.847-3.66 2.564-5.578a18.12 18.12 0 0 0 1.146-6.773c-.043-1.738-.33-3.465-.282-5.2a7.19 7.19 0 0 1 1.695-4.807 14.69 14.69 0 0 1 3.954-2.352 16.46 16.46 0 0 0 5.534-4.616c.674-.827 1.07-1.846 1.13-2.91.21-1.28.986-2.302 1.323-3.535z" fill="#0f0b0b"></path><path d="M173.455 337.236c-.017 1.355.045 2.71.185 4.057.223 1 .74 1.9 1.043 2.878.3 1.13.456 2.292.462 3.46.043.978-.033 2.172-.9 2.63-.38.2-.836.2-1.233.375s-.733.646-.505 1.016.62.3.978.38.744.44.543.74a.62.62 0 0 1-.315.2c-.363.112-.707.277-1.02.49-.313.228-.474.61-.418.994.045.182.17.333.34.41s.367.074.533-.01c-.16.34-.246.7-.255 1.086 1.4.6 2.95-.185 4.253-.94a16.01 16.01 0 0 0 1.629-1.043c2.14-1.644 3.33-4.24 3.172-6.936a16.18 16.18 0 0 0-.31-1.982 29.82 29.82 0 0 0-.8-3.373c-.375-1.168-.885-2.28-1.325-3.427-.934-2.44-1.537-4.99-2.384-7.462a1.13 1.13 0 0 0-.407-.646c-.186-.092-.393-.13-.6-.114-.95-.05-1.904.038-2.83.26a3.01 3.01 0 0 0-1.727 1.086c-.255.543.152 1 .4 1.45.778 1.364 1.284 2.866 1.49 4.423z" fill="#efb7b9"></path><path d="M172.57 271.242a3.98 3.98 0 0 1 .7.967c1.868 3.395 1.9 7.452 1.977 11.324.1 4.345.337 8.7.576 13.062l.71 13.035c.07 1.244.136 2.487.315 3.72.836.212.87 1.3.777 2.172-.6 5.312-2.1 10.78-.543 15.892a1.6 1.6 0 0 0 .364.706 4.24 4.24 0 0 0-2.428-.033c-.777.163-1.526.45-2.308.63a4.9 4.9 0 0 0-2.781 1.086 53.9 53.9 0 0 1-1.819-7.017c-.37-2.172-.473-4.4-1.352-6.42-.353-.81-.83-1.56-1.265-2.335-2.276-4.062-3.395-8.652-4.486-13.182a19.24 19.24 0 0 1-.348-6.55 22.53 22.53 0 0 0 .272-3.014c-.066-1.066-.206-2.126-.418-3.172-.462-3.07-.245-6.206.635-9.184.815-2.764 1.532-5.676 3.26-8s5.278-3.65 8.162-3.687z" class="B"></path><path d="M173.216 270.807c.28.287.517.615.7.972 1.868 3.39 1.9 7.452 1.977 11.324.1 4.345.337 8.7.576 13.035l.71 13.035c.07 1.244.136 2.487.315 3.72.836.212.87 1.3.77 2.172-.6 5.312-2.09 10.776-.543 15.892a1.6 1.6 0 0 0 .364.706 4.24 4.24 0 0 0-2.428-.033c-.777.163-1.526.45-2.308.625-.988.228-2.107.32-2.78 1.086a53.34 53.34 0 0 1-1.8-7.05c-.37-2.172-.473-4.4-1.352-6.414a26.24 26.24 0 0 0-1.265-2.335c-2.28-4.062-3.394-8.657-4.486-13.187-.5-2.147-.608-4.363-.348-6.55a14.12 14.12 0 0 0-.147-6.186c-.462-3.07-.245-6.203.635-9.18.815-2.764 1.532-5.676 3.26-8s5.266-3.6 8.15-3.633z" fill="#ac63ff"></path><path d="M171.32 231.893c-1.63-2.037-3.7-3.872-6.25-4.383-2.07-.418-4.215.087-6.322-.08-1.863-.147-3.655-.82-5.507-1.086-1.68-.18-3.378-.117-5.04.2a19.16 19.16 0 0 0-4.59 1.282 13.63 13.63 0 0 0-2.265 1.287 19.34 19.34 0 0 1 4.057-1.086 17.38 17.38 0 0 1 5.035-.19c1.857.24 3.644.907 5.513 1.054 2.1.168 4.247-.33 6.322.08 2.547.5 4.633 2.352 6.246 4.388 1.5 1.9 2.76 4.318 2.124 6.653-.337 1.227-1.12 2.3-1.33 3.568a5.04 5.04 0 0 1-1.135 2.911 16.5 16.5 0 0 1-3.987 3.709l1.255-.6a16.46 16.46 0 0 0 5.534-4.617 5.06 5.06 0 0 0 1.13-2.91c.217-1.282.994-2.335 1.33-3.568.64-2.278-.62-4.705-2.12-6.6zm-9.82 20.1c.225-.233.47-.446.733-.635-1.303.5-2.502 1.235-3.536 2.172a7.26 7.26 0 0 0-1.695 4.807c-.065 1.738.244 3.465.282 5.2a18.16 18.16 0 0 1-1.146 6.778c-.717 1.917-1.754 3.693-2.564 5.578-.94 2.172-1.57 4.486-2.417 6.707a36.39 36.39 0 0 1-13.8 17.173l-.092.217a36.33 36.33 0 0 0 16.69-18.9l2.422-6.713 2.564-5.578a18.12 18.12 0 0 0 1.146-6.773l-.282-5.2a7.26 7.26 0 0 1 1.695-4.833z" class="B"></path></svg>