<svg xmlns="http://www.w3.org/2000/svg" xmlns:xlink="http://www.w3.org/1999/xlink" xmlns:v="https://vecta.io/nano" width="841.998" height="778.906"><style><![CDATA[.B{opacity:.5}.C{fill:#fff}.D{fill:#e0e0e0}.E{fill:url(#A)}.F{fill:#6c63ff}]]></style><defs><linearGradient id="A"><stop offset="0" stop-color="gray" stop-opacity=".25"></stop><stop offset=".54" stop-color="gray" stop-opacity=".122"></stop><stop offset="1" stop-color="gray" stop-opacity=".102"></stop></linearGradient><clipPath id="B"><path transform="translate(202.54 262.18)" d="M0 0h143.8v96.93H0z" class="C"></path></clipPath><clipPath id="C"><path transform="translate(202.54 468.88)" d="M0 0h143.8v96.93H0z" class="C"></path></clipPath><linearGradient id="D" x1=".518" y1="1.092" x2=".518" y2="-.251" xlink:href="#A"></linearGradient><linearGradient id="E" x1=".6" y1=".66" x2=".6" y2=".086" xlink:href="#A"></linearGradient><linearGradient id="F" x1=".5" y1="1" x2=".5"><stop offset="0" stop-color="#b3b3b3" stop-opacity=".25"></stop><stop offset=".54" stop-color="#b3b3b3" stop-opacity=".102"></stop><stop offset="1" stop-color="#b3b3b3" stop-opacity=".05"></stop></linearGradient><linearGradient id="G" x1=".5" y1=".999" x2=".5"><stop offset="0" stop-opacity=".122"></stop><stop offset=".55" stop-opacity=".1"></stop><stop offset="1" stop-opacity=".02"></stop></linearGradient><linearGradient id="H" y1="1" y2="0" xlink:href="#G"></linearGradient><path id="I" d="M506.5 427.077c-12.54 0-12.56 19.5 0 19.5s12.56-19.5 0-19.5z"></path></defs><path d="M154.15 130.227H602.6v602.6H154.15z" class="B E"></path><path fill="#f2f2f2" d="M160 138.407h434.43v581.58H160z"></path><path d="M193.86 162.927h149.48v4.67H193.86z" class="D"></path><path opacity=".7" d="M193.86 183.947h149.48v4.67H193.86z" class="F"></path><path d="M365.53 162.927H515v4.67H365.53zm23.35 133.14h149.48v4.67H388.88zm3.52 12.84h149.48v4.67H392.4zm7 12.85h149.48v4.67H399.4zm-10.52 181h149.48v4.67H388.88zm3.52 12.85h149.48v4.67H392.4zm7 12.84h149.48v4.67H399.4z" class="D"></path><path d="M195.03 248.177h158.82v161.16H195.03z" class="B E"></path><path fill="#f5f5f5" d="M196.03 251.687h156.32v154.15H196.03z"></path><path d="M201.54 261.027h145.8v100.43h-145.8z" class="B E"></path><path d="M202.54 262.197h143.8v96.93h-143.8z" class="C"></path><g clip-path="url(#B)" transform="translate(0 .017)"><path d="M190.35 355.6l36.2-56.06 15.18 24.52 32.7-33.86 28.03 33.86 24.52-50.2 63.06 100.43-204.37-7z" fill="#ff63c5" opacity=".4"></path><circle cx="218.38" cy="276.19" r="10.51" opacity=".4" class="F"></circle></g><path d="M195.03 454.887h158.82v161.16H195.03z" class="B E"></path><path fill="#f5f5f5" d="M196.03 458.387h156.32v154.15H196.03z"></path><path d="M201.54 467.737h145.8v100.43h-145.8z" class="B E"></path><path d="M202.54 468.897h143.8v96.93h-143.8z" class="C"></path><g clip-path="url(#C)" transform="translate(0 .017)" fill="#bdbdbd"><path d="M190.35 562.3l36.2-56.06 15.18 24.53 32.7-33.87 28.03 33.87L327 480.56 390.05 581l-204.37-7z" opacity=".4"></path><circle cx="218.38" cy="482.9" r="10.51" opacity=".4"></circle></g><path fill="url(#D)" d="M219.986 691.495l117.458-591.042 439.838 87.41-117.458 591.042z" class="B"></path><path d="M228.214 680.037l113.36-570.425 426.097 84.68-113.36 570.425z" class="C"></path><path d="M367.32 142.095L669.715 202.2l-.9 4.58-302.396-60.095zm-86.045 432.98L583.67 635.17l-.9 4.58-302.396-60.095zM276.03 601.4l233.67 46.44-.9 4.58-233.67-46.438z" class="D"></path><path opacity=".7" d="M270.797 627.764l87.048 17.3-.9 4.58-87.048-17.3zm91.278-459.32l151.193 30.047-.9 4.58-151.193-30.047z" class="F"></path><path d="M356.85 194.787l272.61 54.176-.9 4.58-272.61-54.176z" class="D"></path><path fill="#3ad29f" opacity=".7" d="M351.61 221.137l66.43 13.202-.9 4.58-66.43-13.202z"></path><path d="M346.38 247.482l302.396 60.095-.9 4.58-302.396-60.095z" class="D"></path><path fill="url(#E)" d="M342.067 514.535l30.957-155.774 271.46 53.948-30.957 155.774z" class="B"></path><path d="M374.56 360.248l268.028 53.266-30.275 152.34-268.028-53.266z" class="C"></path><path d="M341.145 273.835L643.54 333.93l-.9 4.58-302.396-60.095z" class="D"></path><path fill="#ff63da" d="M398.533 386.443l33.22 6.602-22.08 111.107-33.22-6.602z"></path><path fill="#3ad29f" d="M450.81 434.936l33.22 6.602-14.796 74.454-33.22-6.602z"></path><path fill="#f55f44" d="M503.55 481.138l33.22 6.602-7.966 40.086-33.22-6.602z"></path><path fill="#fdd835" d="M571.308 451.74l33.22 6.602-16.163 81.33-33.22-6.602z"></path><path d="M701.45 350.027a155.89 155.89 0 0 0-223.11-1.68c-59 59.48-60 156.33-2.3 217.07 52.347 55.1 136.798 64.418 199.9 22.06l112.7 117.2a7.59 7.59 0 0 0 10.73.21l28.08-27a7.59 7.59 0 0 0 .21-10.73L715 549.967c44.59-61.108 38.876-145.407-13.55-199.94zm-35.1 188.45c-44.392 42.677-114.975 41.287-157.652-3.104s-41.3-114.974 3.1-157.652 114.973-41.293 157.653 3.096a111.5 111.5 0 0 1-3.1 157.66z" fill="url(#F)"></path><use xlink:href="#I" fill="url(#G)"></use><path d="M593.9 364.647c-33.75-.76-64.46 16.17-80.8 41.73-5.33 8.34 9.8 15.7 15.1 7.4 13.52-21.16 39.2-34.6 67-33.9 29.12.73 55.62 17.4 69.65 40.5 5.32 8.77 19.27.8 14-7.92-17.06-28-50.1-47-84.96-47.83z" fill="url(#H)"></path><path d="M713.68 344.107a155.89 155.89 0 0 0-223.11-1.68c-59 59.48-60 156.33-2.3 217.07 52.35 55.095 136.8 64.41 199.9 22.05l112.68 117.22a7.59 7.59 0 0 0 10.73.21l28.08-27a7.59 7.59 0 0 0 .21-10.73l-112.7-117.2c44.594-61.096 38.898-145.39-13.5-199.93zm-35.1 188.37c-44.392 42.677-114.975 41.287-157.652-3.104s-41.3-114.974 3.1-157.652S639 330.428 681.68 374.817a111.5 111.5 0 0 1-3.1 157.66z" fill="#d429c3"></path><g class="F"><use xlink:href="#I" x="12.22" y="-5.93"></use><path d="M606.13 358.727c-33.75-.76-64.46 16.17-80.8 41.73-5.33 8.34 9.8 15.7 15.1 7.4 13.52-21.16 39.2-34.6 67-33.9 29.12.73 55.62 17.4 69.65 40.5 5.32 8.77 19.27.8 14-7.92-17.1-28.08-50.1-47.08-84.96-47.83z"></path></g><g fill="#47e6b1"><path d="M121.45 663.927h3.5v19.85h-3.5z"></path><path d="M133.13 672.097v3.5h-19.85v-3.5z"></path></g><path d="M571.87 7.967a4.29 4.29 0 0 1-2.39-5.19 2.06 2.06 0 0 0 .09-.48h0a2.15 2.15 0 0 0-3.87-1.43h0a2.06 2.06 0 0 0-.24.42 4.29 4.29 0 0 1-5.19 2.39 2.06 2.06 0 0 0-.48-.09h0a2.15 2.15 0 0 0-1.41 3.89h0a2.06 2.06 0 0 0 .42.24 4.29 4.29 0 0 1 2.39 5.19 2.06 2.06 0 0 0-.09.48h0a2.15 2.15 0 0 0 3.9 1.41h0a2.06 2.06 0 0 0 .24-.42 4.29 4.29 0 0 1 5.19-2.39 2.06 2.06 0 0 0 .48.09h0a2.15 2.15 0 0 0 1.43-3.87h0a2.06 2.06 0 0 0-.47-.24z" fill="#4d8af0"></path><path d="M137.44 155.117a4.29 4.29 0 0 1-2.39-5.19 2.06 2.06 0 0 0 .09-.48h0a2.15 2.15 0 0 0-3.87-1.43h0a2.06 2.06 0 0 0-.24.42 4.29 4.29 0 0 1-5.19 2.39 2.06 2.06 0 0 0-.48-.09h0a2.15 2.15 0 0 0-1.43 3.87h0a2.06 2.06 0 0 0 .42.24 4.29 4.29 0 0 1 2.39 5.19 2.06 2.06 0 0 0-.09.48h0a2.15 2.15 0 0 0 3.87 1.43h0a2.06 2.06 0 0 0 .24-.42 4.29 4.29 0 0 1 5.19-2.39 2.06 2.06 0 0 0 .48.09h0a2.15 2.15 0 0 0 1.43-3.87h0a2.06 2.06 0 0 0-.42-.24zm617.78 607.26a4.29 4.29 0 0 1-2.39-5.19c.05-.156.08-.317.1-.48h0a2.15 2.15 0 0 0-3.87-1.43h0a2.06 2.06 0 0 0-.24.42 4.29 4.29 0 0 1-5.19 2.39 2.06 2.06 0 0 0-.48-.09h0a2.15 2.15 0 0 0-1.43 3.87h0a2.06 2.06 0 0 0 .42.24 4.29 4.29 0 0 1 2.39 5.19 2.06 2.06 0 0 0-.09.48h0a2.15 2.15 0 0 0 3.87 1.43h0a2.06 2.06 0 0 0 .24-.42 4.29 4.29 0 0 1 5.19-2.39 2.06 2.06 0 0 0 .48.09h0a2.15 2.15 0 0 0 1.43-3.87h0a2.06 2.06 0 0 0-.42-.24z" fill="#fdd835"></path><g fill="#f55f44"><circle cx="321.15" cy="75.347" r="7.01"></circle><circle cx="823.31" cy="162.927" r="7.01"></circle></g><circle cx="783.61" cy="371.967" r="7.01" fill="#4d8af0"></circle><circle cx="7.01" cy="28.627" r="7.01" fill="#47e6b1" class="B"></circle></svg>