<svg xmlns="http://www.w3.org/2000/svg" width="1089.871" height="822.507" viewBox="0 0 1089.871 822.507"><g id="Scholarship" transform="translate(0 0)"><path id="Path_227" data-name="Path 227" d="M988.8,484.313c0,126.51-74.17,238.43-187.87,306.56-72.9,43.69-162.06,69.38-258.33,69.38-128.25,0-226.08-48.47-299.67-122.72-67.83-68.42-115.06-158.75-146.53-253.22-140.49-421.79,94.2-536.86,446.2-375.94C766.723,210.843,988.8,276.693,988.8,484.313Z" transform="translate(-55.067 -38.747)" fill="#bf21b0"></path><path id="Path_228" data-name="Path 228" d="M800.933,263.5v528.37c-72.9,43.69-162.06,69.38-258.33,69.38-128.25,0-226.08-48.47-299.67-122.72V263.5Z" transform="translate(-55.067 -38.747)" fill="#f2f2f2"></path><path id="Path_229" data-name="Path 229" d="M296.6,520.955a349.1,349.1,0,0,1,90.156-16.073,282.157,282.157,0,0,1,45.97,1.8,287.566,287.566,0,0,1,44.616,9.552c14.421,4.175,28.642,9,43.014,13.333a401.187,401.187,0,0,0,44.455,10.848,376.874,376.874,0,0,0,45.17,5.384c15,.872,30.153,1.042,45.114-.556a138.025,138.025,0,0,0,40.59-10.289A123.97,123.97,0,0,0,728.7,513.779q3.672-3.278,7.066-6.845c1.335-1.4-.784-3.52-2.121-2.121C714.521,524.8,689.384,537.2,662.119,541.34c-14.853,2.255-29.99,2.386-44.974,1.8a370.055,370.055,0,0,1-45.715-4.619,382.044,382.044,0,0,1-44.276-10.078c-14.288-4.139-28.381-8.912-42.619-13.215a320.735,320.735,0,0,0-43.879-10.454,275.931,275.931,0,0,0-45.019-3.125,344.2,344.2,0,0,0-88.973,13.176q-5.455,1.532-10.86,3.233c-1.836.576-1.052,3.473.8,2.893Z" transform="translate(-55.067 -38.747)" fill="#3f3d56"></path><path id="Path_230" data-name="Path 230" d="M296.6,596.955a349.108,349.108,0,0,1,90.156-16.073,282.154,282.154,0,0,1,45.97,1.8,287.563,287.563,0,0,1,44.616,9.552c14.421,4.175,28.642,9,43.014,13.333a401.16,401.16,0,0,0,44.455,10.848,376.9,376.9,0,0,0,45.17,5.384c15,.872,30.153,1.042,45.114-.556a138.027,138.027,0,0,0,40.59-10.289A123.97,123.97,0,0,0,728.7,589.779q3.672-3.278,7.066-6.845c1.335-1.4-.784-3.52-2.121-2.121C714.521,600.8,689.384,613.2,662.119,617.34c-14.853,2.255-29.99,2.386-44.974,1.8a370.055,370.055,0,0,1-45.715-4.619,382.045,382.045,0,0,1-44.276-10.077c-14.288-4.139-28.381-8.912-42.619-13.215a320.726,320.726,0,0,0-43.879-10.454,275.942,275.942,0,0,0-45.019-3.125,344.2,344.2,0,0,0-88.973,13.176q-5.455,1.532-10.86,3.233c-1.836.576-1.052,3.473.8,2.893Z" transform="translate(-55.067 -38.747)" fill="#3f3d56"></path><path id="Path_231" data-name="Path 231" d="M296.6,451.955a349.1,349.1,0,0,1,90.156-16.073,282.153,282.153,0,0,1,45.97,1.8,287.555,287.555,0,0,1,44.616,9.552c14.421,4.175,28.642,9,43.014,13.333a401.187,401.187,0,0,0,44.455,10.848,376.883,376.883,0,0,0,45.17,5.384c15,.872,30.153,1.042,45.114-.556a138.027,138.027,0,0,0,40.59-10.289A123.971,123.971,0,0,0,728.7,444.779q3.672-3.278,7.066-6.845c1.335-1.4-.784-3.52-2.121-2.121C714.521,455.8,689.384,468.2,662.119,472.34c-14.853,2.255-29.99,2.386-44.974,1.8a370.056,370.056,0,0,1-45.715-4.618,382.035,382.035,0,0,1-44.275-10.078c-14.288-4.139-28.381-8.912-42.619-13.215a320.739,320.739,0,0,0-43.879-10.454,275.931,275.931,0,0,0-45.019-3.125,344.2,344.2,0,0,0-88.973,13.176q-5.455,1.532-10.86,3.233c-1.836.576-1.052,3.473.8,2.893Z" transform="translate(-55.067 -38.747)" fill="#3f3d56"></path><path id="Path_232" data-name="Path 232" d="M293.03,321.5c7.258-3.216,15.573-2.655,23.106-.79,8.122,2.01,15.771,5.507,23.767,7.924a82.271,82.271,0,0,0,43.978.834,81.062,81.062,0,0,0,23.032-9.872c1.631-1.025.127-3.622-1.514-2.59a79.487,79.487,0,0,1-42.32,12.065,77.648,77.648,0,0,1-22.154-3.262c-7.937-2.38-15.525-5.835-23.565-7.884-8.519-2.171-17.655-2.642-25.844.986-1.762.78-.237,3.366,1.514,2.59Z" transform="translate(-55.067 -38.747)" fill="#3f3d56"></path><circle id="Ellipse_52" data-name="Ellipse 52" cx="46" cy="46" r="46" transform="translate(414.867 650.757)" fill="#3f3d56"></circle><circle id="Ellipse_53" data-name="Ellipse 53" cx="25" cy="25" r="25" transform="translate(187.867 80.757)" fill="#f2f2f2"></circle><circle id="Ellipse_54" data-name="Ellipse 54" cx="17" cy="17" r="17" transform="translate(414.867 159.757)" fill="#f2f2f2"></circle><circle id="Ellipse_55" data-name="Ellipse 55" cx="17" cy="17" r="17" transform="translate(138.867 322.757)" fill="#f2f2f2"></circle><rect id="Rectangle_162" data-name="Rectangle 162" width="1.875" height="335.244" transform="translate(85.547 213.464)" fill="#3f3d56"></rect><ellipse id="Ellipse_56" data-name="Ellipse 56" cx="36.557" cy="83.424" rx="36.557" ry="83.424" transform="translate(50.289 353.13)" fill="#3f3d56"></ellipse><ellipse id="Ellipse_57" data-name="Ellipse 57" cx="36.557" cy="83.424" rx="36.557" ry="83.424" transform="translate(50.289 162.848)" fill="#3f3d56"></ellipse><path id="Path_233" data-name="Path 233" d="M142.811,216.861l-1.8-.538c.113-.379,11.135-38.147-6.962-62.461-10.221-13.732-27.76-20.695-52.131-20.695v-1.875c25,0,43.046,7.219,53.64,21.457C154.219,177.825,142.927,216.473,142.811,216.861Z" transform="translate(-55.067 -38.747)" fill="#3f3d56"></path><circle id="Ellipse_58" data-name="Ellipse 58" cx="23.434" cy="23.434" r="23.434" transform="translate(3.422 70.049)" fill="#3f3d56"></circle><path id="Path_234" data-name="Path 234" d="M825.807,663.424l-17.533,161.3H929.248l5.26-12.273,7.013,12.273h113.961s-8.766-166.559-24.546-171.819S825.807,663.424,825.807,663.424Z" transform="translate(-55.067 -38.747)" fill="#2f2e41"></path><circle id="Ellipse_59" data-name="Ellipse 59" cx="61.364" cy="61.364" r="61.364" transform="translate(812.818 147.793)" fill="#ffb8b8"></circle><path id="Path_235" data-name="Path 235" d="M894.183,286.475s5.26,56.1,0,59.611,84.156,1.753,84.156,1.753-12.273-50.844,0-75.39Z" transform="translate(-55.067 -38.747)" fill="#ffb8b8"></path><path id="Path_236" data-name="Path 236" d="M925.742,333.813s45.113,7.026,48.855-7.006l23.028,31.552,1.753,315.585s-187.6,22.792-194.611-14.026,71.883-327.858,71.883-327.858l19.862-1.286S922.235,333.813,925.742,333.813Z" transform="translate(-55.067 -38.747)" fill="#d0cde1"></path><path id="Path_237" data-name="Path 237" d="M896.214,316.375,866.131,326.8l-85.909,21.039,3.506,210.39S710.091,768.618,743.4,784.4s80.65-21.039,94.676-47.338S901.2,346.085,901.2,339.072,896.214,316.375,896.214,316.375Z" transform="translate(-55.067 -38.747)" fill="#3f3d56"></path><path id="Path_238" data-name="Path 238" d="M973.47,316.375,985.352,326.8l84.156,38.572L1027.43,577.514s56.1,192.858,35.065,203.377-52.6,40.325-59.61,22.792S954.575,335.756,973.47,316.375Z" transform="translate(-55.067 -38.747)" fill="#3f3d56"></path><path id="Path_239" data-name="Path 239" d="M1022.17,596.8s-78.9-33.312-80.65-3.506,89.416,50.844,89.416,42.078S1022.17,596.8,1022.17,596.8Z" transform="translate(-55.067 -38.747)" fill="#ffb8b8"></path><path id="Path_240" data-name="Path 240" d="M829.313,584.528s91.169,68.377,56.1,85.909-80.65-61.364-80.65-61.364Z" transform="translate(-55.067 -38.747)" fill="#ffb8b8"></path><path id="Path_241" data-name="Path 241" d="M956.491,158.015a3.384,3.384,0,0,1,3.257-1.933c-28.094-1.68-57.685,1.594-81.188,17.075-6.582,4.336-12.729,9.638-20.223,12.081l6.083,4.77-7.268,2.215,10.7,6.913a9.27,9.27,0,0,1-8.829,2.958c4.648,1.358,8.07,5.494,9.809,10.014s2.051,9.442,2.344,14.276c1.8-6.974,9.408-11.08,16.6-11.5s14.2,1.955,21.2,3.66a117.272,117.272,0,0,0,46.548,1.791c-5.257,10.549-.823,23.131,3.639,34.04l8.91,21.782c4.946.5,8.442-4.421,12.169-7.712,3.4-3-10.125,23.376-8.032,22.41,2.72-1.255,31.421-32.944,32.765-35.621,6.132-12.214,9.811-25.838,9.258-39.493s-5.55-27.318-14.963-37.227c-6.39-6.727-15.231-7.905-21.746-13.5-2.564-2.2-2.573-3.92-6.1-5.2C970.25,159.391,956.685,157.586,956.491,158.015Z" transform="translate(-55.067 -38.747)" fill="#2f2e41"></path><path id="Path_242" data-name="Path 242" d="M792.495,353.1l-12.273-5.26-98.182,161.3s-17.532,42.078,14.026,61.364,105.2,77.143,105.2,77.143l42.078-64.87s-85.909-40.325-80.65-56.1S796,468.813,796,468.813Z" transform="translate(-55.067 -38.747)" fill="#3f3d56"></path><path id="Path_243" data-name="Path 243" d="M1046.72,361.865l22.792,3.507s94.676,185.845,71.883,220.91-115.716,84.156-115.716,84.156-1.753-57.857-17.532-78.9L1062.5,570.5l-29.805-115.715Z" transform="translate(-55.067 -38.747)" fill="#3f3d56"></path></g></svg>